<svg xmlns="http://www.w3.org/2000/svg" id="_&#x421;&#x43B;&#x43E;&#x439;_2" viewBox="0 0 874.4 393.38"><defs><style>.cls-1{fill:#f35417;}.cls-2{fill:#efdd05;}.cls-3{fill:#6209ed;}</style></defs><g id="RUS"><g id="blue"><path class="cls-3" d="m256.55,389.74c0,.97-.32,1.86-.97,2.67-.65.65-1.54.97-2.67.97H31.7c-.97,0-1.78-.32-2.43-.97-.65-.65-.97-1.38-.97-2.18v-163.42c0-.97.32-1.78.97-2.43.65-.65,1.46-.97,2.43-.97h50.51c.97,0,1.78.32,2.43.97.65.65.97,1.46.97,2.43v108.54c0,.97.32,1.86.97,2.67.81.65,1.62.97,2.43.97h20.88c.97,0,1.78-.32,2.43-.97.65-.81.97-1.7.97-2.67v-108.54c0-.97.32-1.78.97-2.43.65-.65,1.38-.97,2.19-.97h50.99c.97,0,1.78.32,2.43.97.65.65.97,1.46.97,2.43v108.54c0,1.13.32,2.02.97,2.67.65.65,1.46.97,2.43.97h20.4c.97,0,1.78-.32,2.43-.97s.97-1.54.97-2.67v-108.54c0-.97.32-1.78.97-2.43s1.46-.97,2.43-.97h50.99c.81,0,1.54.32,2.18.97.81.65,1.21,1.46,1.21,2.43l.73,162.93Z"></path><path class="cls-3" d="m870.97,223.41c1.13,0,2.02.57,2.67,1.7.81.97.97,2.02.49,3.16l-46.14,106.6c-.48,1.3-1.46,1.94-2.91,1.94h-12.63c-.97,0-1.78.32-2.43.97-.65.65-.97,1.46-.97,2.43v49.54c0,.97-.41,1.86-1.21,2.67-.65.65-1.46.97-2.43.97h-50.51c-.97,0-1.86-.32-2.67-.97-.65-.81-.97-1.7-.97-2.67v-49.54c0-.97-.32-1.78-.97-2.43-.65-.65-1.46-.97-2.43-.97h-11.9c-1.3,0-2.35-.65-3.16-1.94l-46.62-106.84c-.16-.32-.24-.73-.24-1.21,0-.81.32-1.54.97-2.19.65-.81,1.46-1.21,2.43-1.21h52.69c1.46,0,2.43.65,2.91,1.94l23.31,53.18c.49,1.29,1.54,1.94,3.16,1.94h17c1.62,0,2.67-.65,3.16-1.94l23.55-53.18c.49-1.3,1.46-1.94,2.92-1.94h52.93Z"></path><path class="cls-3" d="m88.96,152.53c-.98,0-1.71-.37-2.2-1.1-.49-.73-.55-1.53-.18-2.38,5.25-12.71,10.38-24.5,15.39-35.37,5.01-11,7.88-17.29,8.61-18.88l2.38-5.13c.24-.86.24-1.65,0-2.38-2.2-4.28-5.93-12.28-11.18-24.01-5.25-11.73-10.33-23.52-15.21-35.37-.12-.25-.18-.61-.18-1.1,0-.73.25-1.34.73-1.83.49-.49,1.1-.73,1.83-.73h39.4c.98,0,1.77.55,2.38,1.65l17.41,39.59c.37.98,1.22,1.47,2.57,1.47h12.83c1.22,0,2.02-.49,2.38-1.47,5.38-12.95,11.18-26.15,17.41-39.59.49-1.1,1.28-1.65,2.38-1.65h39.77c.86,0,1.53.43,2.02,1.28.49.73.61,1.53.37,2.38l-26.39,59.38c-.24.85-.24,1.59,0,2.2l26.39,59.38c.12.24.18.55.18.92,0,.73-.24,1.4-.73,2.02-.49.49-1.1.73-1.83.73h-39.77c-1.22,0-2.02-.49-2.38-1.47l-2.2-4.77c-5.86-13.07-10.94-24.62-15.21-34.64-.37-.98-1.16-1.47-2.38-1.47h-12.83c-1.34,0-2.2.49-2.57,1.47l-17.41,39.4c-.61.98-1.41,1.47-2.38,1.47h-39.4Z"></path><path class="cls-3" d="m241.68,152.53c-1.47,0-2.63-.55-3.48-1.65-.73-1.1-.98-2.38-.73-3.85l32.07-119.68c.24-.98.73-1.71,1.47-2.2.85-.61,1.77-.92,2.75-.92h70.01c.98,0,1.89.3,2.75.92.86.61,1.34,1.34,1.47,2.2l32.07,119.68c.37,1.47.12,2.75-.73,3.85-.86,1.1-2.02,1.65-3.48,1.65h-36.84c-.98,0-1.89-.24-2.75-.73-.73-.61-1.22-1.41-1.47-2.38l-2.57-9.9c-.12-.49-.43-.92-.92-1.28-.49-.37-1.04-.55-1.65-.55h-41.79c-.61,0-1.16.18-1.65.55-.49.37-.79.79-.92,1.28-.24,1.1-.49,2.02-.73,2.75-.24.73-.43,1.4-.55,2.02-.86,3.18-1.34,5.32-1.47,6.42-.37,1.22-1.22,1.83-2.57,1.83h-38.3Zm76.06-54.62c.86,0,1.53-.31,2.02-.92.49-.73.61-1.59.37-2.57l-7.88-29.14c-.12-.73-.61-1.1-1.47-1.1h-4.03c-.73,0-1.22.37-1.47,1.1l-7.88,29.14v.73c0,.73.18,1.4.55,2.02.49.49,1.1.73,1.83.73h17.96Z"></path><path class="cls-3" d="m544.56,152.53c-.98,0-1.71-.37-2.2-1.1-.49-.73-.55-1.53-.18-2.38,5.25-12.71,10.39-24.5,15.4-35.37,5.01-11,7.88-17.29,8.61-18.88l2.38-5.13c.24-.86.24-1.65,0-2.38-2.2-4.28-5.93-12.28-11.18-24.01-5.25-11.73-10.33-23.52-15.21-35.37-.12-.25-.18-.61-.18-1.1,0-.73.24-1.34.73-1.83.49-.49,1.1-.73,1.83-.73h39.4c.98,0,1.77.55,2.38,1.65l17.41,39.59c.37.98,1.22,1.47,2.57,1.47h12.83c1.22,0,2.02-.49,2.38-1.47,5.38-12.95,11.18-26.15,17.41-39.59.49-1.1,1.28-1.65,2.38-1.65h39.77c.86,0,1.53.43,2.02,1.28.49.73.61,1.53.37,2.38l-26.39,59.38c-.24.85-.24,1.59,0,2.2l26.39,59.38c.12.24.18.55.18.92,0,.73-.24,1.41-.73,2.02-.49.49-1.1.73-1.83.73h-39.77c-1.22,0-2.02-.49-2.38-1.47l-2.2-4.77c-5.86-13.07-10.94-24.62-15.21-34.64-.37-.98-1.16-1.47-2.38-1.47h-12.83c-1.34,0-2.2.49-2.57,1.47l-17.41,39.4c-.61.98-1.4,1.47-2.38,1.47h-39.4Z"></path><path class="cls-3" d="m697.28,152.53c-1.47,0-2.63-.55-3.48-1.65-.73-1.1-.98-2.38-.73-3.85l32.07-119.68c.24-.98.73-1.71,1.47-2.2.86-.61,1.77-.92,2.75-.92h70.01c.98,0,1.89.3,2.75.92.86.61,1.34,1.34,1.47,2.2l32.07,119.68c.37,1.47.12,2.75-.73,3.85-.86,1.1-2.02,1.65-3.49,1.65h-36.84c-.98,0-1.89-.24-2.75-.73-.73-.61-1.22-1.41-1.47-2.38l-2.57-9.9c-.12-.49-.43-.92-.92-1.28-.49-.37-1.04-.55-1.65-.55h-41.79c-.61,0-1.16.18-1.65.55-.49.37-.79.79-.92,1.28-.24,1.1-.49,2.02-.73,2.75-.24.73-.43,1.4-.55,2.02-.85,3.18-1.34,5.32-1.47,6.42-.37,1.22-1.22,1.83-2.57,1.83h-38.3Zm76.06-54.62c.85,0,1.53-.31,2.02-.92.49-.73.61-1.59.37-2.57l-7.88-29.14c-.12-.73-.61-1.1-1.47-1.1h-4.03c-.73,0-1.22.37-1.47,1.1l-7.88,29.14v.73c0,.73.18,1.41.55,2.02.49.49,1.1.73,1.83.73h17.96Z"></path><path class="cls-3" d="m420.41,81.15c.78-1.48,2.32-2.41,3.99-2.41h77.38c1.82,0,3.45,1.09,4.16,2.76l6.51,15.46c1.25,2.97-.93,6.26-4.16,6.26h-92.03c-3.39,0-5.57-3.61-3.99-6.61l8.14-15.46Z"></path><path class="cls-3" d="m343.31,393.29c-7.28,0-14.01-2.12-20.19-6.36-6.18-4.4-11.12-10.21-14.83-17.44-3.57-7.39-5.36-15.4-5.36-24.04v-69.06c0-8.8,1.79-16.82,5.36-24.04,3.71-7.39,8.65-13.2,14.83-17.44,6.18-4.4,12.91-6.6,20.19-6.6h273.24c7.42,0,14.22,2.2,20.4,6.6,6.18,4.24,11.06,10.06,14.63,17.44,3.57,7.23,5.36,15.24,5.36,24.04v69.06c0,8.64-1.79,16.66-5.36,24.04-3.57,7.23-8.45,13.04-14.63,17.44-6.18,4.24-12.98,6.36-20.4,6.36h-273.24Zm257.99-55.39c1.92,0,3.57-.79,4.95-2.36,1.37-1.73,2.06-3.85,2.06-6.36v-37.48c0-2.51-.69-4.64-2.06-6.36-1.37-1.73-3.02-2.59-4.95-2.59h-242.33c-1.92,0-3.64.86-5.15,2.59-1.37,1.73-2.06,3.85-2.06,6.36v37.48c0,2.51.69,4.64,2.06,6.36,1.51,1.57,3.23,2.36,5.15,2.36h242.33Z"></path></g><g id="red"><path class="cls-1" d="m245.11,377.88c0,.97-.32,1.86-.97,2.67-.65.65-1.54.97-2.67.97H20.26c-.97,0-1.78-.32-2.43-.97-.65-.65-.97-1.38-.97-2.18v-163.42c0-.97.32-1.78.97-2.43.65-.65,1.46-.97,2.43-.97h50.51c.97,0,1.78.32,2.43.97.65.65.97,1.46.97,2.43v108.54c0,.97.32,1.86.97,2.67.81.65,1.62.97,2.43.97h20.88c.97,0,1.78-.32,2.43-.97.65-.81.97-1.7.97-2.67v-108.54c0-.97.32-1.78.97-2.43s1.38-.97,2.19-.97h50.99c.97,0,1.78.32,2.43.97.65.65.97,1.46.97,2.43v108.54c0,1.13.32,2.02.97,2.67.65.65,1.46.97,2.43.97h20.4c.97,0,1.78-.32,2.43-.97s.97-1.54.97-2.67v-108.54c0-.97.32-1.78.97-2.43.65-.65,1.46-.97,2.43-.97h50.99c.81,0,1.54.32,2.18.97.81.65,1.21,1.46,1.21,2.43l.73,162.93Z"></path><path class="cls-1" d="m859.54,211.55c1.13,0,2.02.57,2.67,1.7.81.97.97,2.02.49,3.16l-46.14,106.6c-.49,1.3-1.46,1.94-2.91,1.94h-12.63c-.97,0-1.78.32-2.43.97-.65.65-.97,1.46-.97,2.43v49.54c0,.97-.41,1.86-1.21,2.67-.65.65-1.46.97-2.43.97h-50.51c-.97,0-1.86-.32-2.67-.97-.65-.81-.97-1.7-.97-2.67v-49.54c0-.97-.32-1.78-.97-2.43-.65-.65-1.46-.97-2.43-.97h-11.9c-1.29,0-2.35-.65-3.16-1.94l-46.62-106.84c-.16-.32-.24-.73-.24-1.21,0-.81.32-1.54.97-2.19.65-.81,1.46-1.21,2.43-1.21h52.69c1.46,0,2.43.65,2.91,1.94l23.31,53.18c.49,1.29,1.54,1.94,3.16,1.94h17c1.62,0,2.67-.65,3.16-1.94l23.55-53.18c.49-1.3,1.46-1.94,2.91-1.94h52.94Z"></path><path class="cls-1" d="m80.33,140.37c-.98,0-1.71-.37-2.2-1.1-.49-.73-.55-1.53-.18-2.38,5.25-12.71,10.39-24.5,15.39-35.37,5.01-11,7.88-17.29,8.61-18.88l2.38-5.13c.24-.85.24-1.65,0-2.38-2.2-4.28-5.93-12.28-11.18-24.01-5.25-11.73-10.32-23.52-15.21-35.37-.12-.24-.18-.61-.18-1.1,0-.73.24-1.35.73-1.83.49-.49,1.1-.73,1.83-.73h39.4c.98,0,1.77.55,2.38,1.65l17.41,39.59c.37.98,1.22,1.47,2.57,1.47h12.83c1.22,0,2.02-.49,2.38-1.47,5.38-12.95,11.18-26.15,17.41-39.59.49-1.1,1.28-1.65,2.38-1.65h39.77c.85,0,1.53.43,2.02,1.28.49.73.61,1.53.37,2.38l-26.39,59.38c-.24.86-.24,1.59,0,2.2l26.39,59.38c.12.24.18.55.18.92,0,.73-.24,1.4-.73,2.02-.49.49-1.1.73-1.83.73h-39.77c-1.22,0-2.02-.49-2.38-1.47l-2.2-4.77c-5.86-13.07-10.93-24.62-15.21-34.64-.37-.98-1.16-1.47-2.38-1.47h-12.83c-1.34,0-2.2.49-2.57,1.47l-17.41,39.4c-.61.98-1.4,1.47-2.38,1.47h-39.4Z"></path><path class="cls-1" d="m233.05,140.37c-1.47,0-2.63-.55-3.48-1.65-.73-1.1-.98-2.38-.73-3.85l32.07-119.68c.24-.98.73-1.71,1.47-2.2.86-.61,1.77-.92,2.75-.92h70.01c.98,0,1.89.31,2.75.92.86.61,1.34,1.34,1.47,2.2l32.07,119.68c.37,1.47.12,2.75-.73,3.85-.86,1.1-2.02,1.65-3.48,1.65h-36.84c-.98,0-1.89-.24-2.75-.73-.73-.61-1.22-1.4-1.47-2.38l-2.57-9.9c-.12-.49-.43-.92-.92-1.28-.49-.37-1.04-.55-1.65-.55h-41.79c-.61,0-1.16.18-1.65.55-.49.37-.79.79-.92,1.28-.24,1.1-.49,2.02-.73,2.75-.24.73-.43,1.4-.55,2.02-.86,3.18-1.34,5.32-1.47,6.41-.37,1.22-1.22,1.83-2.57,1.83h-38.3Zm76.06-54.62c.86,0,1.53-.31,2.02-.92.49-.73.61-1.59.37-2.57l-7.88-29.14c-.12-.73-.61-1.1-1.47-1.1h-4.03c-.73,0-1.22.37-1.47,1.1l-7.88,29.14v.73c0,.73.18,1.4.55,2.02.49.49,1.1.73,1.83.73h17.96Z"></path><path class="cls-1" d="m535.93,140.37c-.98,0-1.71-.37-2.2-1.1s-.55-1.53-.18-2.38c5.25-12.71,10.39-24.5,15.4-35.37,5.01-11,7.88-17.29,8.61-18.88l2.38-5.13c.24-.85.24-1.65,0-2.38-2.2-4.28-5.93-12.28-11.18-24.01-5.25-11.73-10.32-23.52-15.21-35.37-.12-.24-.18-.61-.18-1.1,0-.73.24-1.35.73-1.83.49-.49,1.1-.73,1.83-.73h39.4c.98,0,1.77.55,2.38,1.65l17.41,39.59c.37.98,1.22,1.47,2.57,1.47h12.83c1.22,0,2.02-.49,2.38-1.47,5.38-12.95,11.18-26.15,17.41-39.59.49-1.1,1.28-1.65,2.38-1.65h39.77c.85,0,1.53.43,2.02,1.28.49.73.61,1.53.37,2.38l-26.39,59.38c-.24.86-.24,1.59,0,2.2l26.39,59.38c.12.24.18.55.18.92,0,.73-.24,1.4-.73,2.02-.49.49-1.1.73-1.83.73h-39.77c-1.22,0-2.02-.49-2.38-1.47l-2.2-4.77c-5.86-13.07-10.94-24.62-15.21-34.64-.37-.98-1.16-1.47-2.38-1.47h-12.83c-1.34,0-2.2.49-2.57,1.47l-17.41,39.4c-.61.98-1.41,1.47-2.38,1.47h-39.4Z"></path><path class="cls-1" d="m688.65,140.37c-1.47,0-2.63-.55-3.48-1.65-.73-1.1-.98-2.38-.73-3.85l32.07-119.68c.24-.98.73-1.71,1.47-2.2.85-.61,1.77-.92,2.75-.92h70.01c.98,0,1.89.31,2.75.92.86.61,1.34,1.34,1.47,2.2l32.07,119.68c.37,1.47.12,2.75-.73,3.85-.86,1.1-2.02,1.65-3.49,1.65h-36.83c-.98,0-1.89-.24-2.75-.73-.73-.61-1.22-1.4-1.47-2.38l-2.57-9.9c-.12-.49-.43-.92-.92-1.28-.49-.37-1.04-.55-1.65-.55h-41.79c-.61,0-1.16.18-1.65.55-.49.37-.79.79-.92,1.28-.24,1.1-.49,2.02-.73,2.75-.24.73-.43,1.4-.55,2.02-.85,3.18-1.34,5.32-1.47,6.41-.37,1.22-1.22,1.83-2.57,1.83h-38.3Zm76.06-54.62c.85,0,1.53-.31,2.02-.92.49-.73.61-1.59.37-2.57l-7.88-29.14c-.12-.73-.61-1.1-1.47-1.1h-4.03c-.73,0-1.22.37-1.47,1.1l-7.88,29.14v.73c0,.73.18,1.4.55,2.02.49.49,1.1.73,1.83.73h17.96Z"></path><path class="cls-1" d="m413.97,71.84c.78-1.48,2.32-2.41,3.99-2.41h77.38c1.82,0,3.45,1.09,4.16,2.76l6.51,15.46c1.25,2.97-.93,6.26-4.16,6.26h-92.03c-3.39,0-5.57-3.61-3.99-6.61l8.14-15.46Z"></path><path class="cls-1" d="m333.31,382.29c-7.28,0-14.01-2.13-20.19-6.4-6.18-4.43-11.12-10.28-14.83-17.55-3.57-7.43-5.36-15.49-5.36-24.19v-69.48c0-8.85,1.79-16.92,5.36-24.19,3.71-7.43,8.65-13.28,14.83-17.55,6.18-4.43,12.91-6.64,20.19-6.64h273.24c7.42,0,14.22,2.21,20.4,6.64,6.18,4.27,11.06,10.12,14.63,17.55,3.57,7.27,5.36,15.33,5.36,24.19v69.48c0,8.7-1.79,16.76-5.36,24.19-3.57,7.27-8.45,13.12-14.63,17.55-6.18,4.27-12.98,6.4-20.4,6.4h-273.24Zm257.99-55.73c1.92,0,3.57-.79,4.95-2.37,1.37-1.74,2.06-3.87,2.06-6.4v-37.71c0-2.53-.69-4.66-2.06-6.4-1.37-1.74-3.02-2.61-4.95-2.61h-242.33c-1.92,0-3.64.87-5.15,2.61-1.37,1.74-2.06,3.87-2.06,6.4v37.71c0,2.53.69,4.66,2.06,6.4,1.51,1.58,3.23,2.37,5.15,2.37h242.33Z"></path></g><g id="yellow"><path class="cls-2" d="m228.25,365.65c0,.97-.32,1.86-.97,2.67-.65.65-1.54.97-2.67.97H3.4c-.97,0-1.78-.32-2.43-.97-.65-.65-.97-1.38-.97-2.19v-163.42c0-.97.32-1.78.97-2.43.65-.65,1.46-.97,2.43-.97h50.51c.97,0,1.78.32,2.43.97.65.65.97,1.46.97,2.43v108.54c0,.97.32,1.86.97,2.67.81.65,1.62.97,2.43.97h20.88c.97,0,1.78-.32,2.43-.97.65-.81.97-1.7.97-2.67v-108.54c0-.97.32-1.78.97-2.43.65-.65,1.38-.97,2.18-.97h50.99c.97,0,1.78.32,2.43.97.65.65.97,1.46.97,2.43v108.54c0,1.13.32,2.02.97,2.67.65.65,1.46.97,2.43.97h20.4c.97,0,1.78-.32,2.43-.97.65-.65.97-1.54.97-2.67v-108.54c0-.97.32-1.78.97-2.43.65-.65,1.46-.97,2.43-.97h50.99c.81,0,1.54.32,2.19.97.81.65,1.21,1.46,1.21,2.43l.73,162.93Z"></path><path class="cls-2" d="m842.67,199.55c1.14,0,2.03.57,2.68,1.7.8.97.97,2.02.48,3.16l-46.13,106.6c-.49,1.3-1.46,1.94-2.91,1.94h-12.63c-.97,0-1.78.32-2.43.97-.65.65-.97,1.46-.97,2.43v49.54c0,.97-.4,1.86-1.21,2.67-.65.65-1.46.97-2.43.97h-50.51c-.97,0-1.86-.32-2.67-.97-.65-.81-.97-1.7-.97-2.67v-49.54c0-.97-.32-1.78-.97-2.43-.65-.65-1.46-.97-2.43-.97h-11.9c-1.29,0-2.35-.65-3.16-1.94l-46.62-106.84c-.16-.32-.24-.73-.24-1.21,0-.81.32-1.54.97-2.18.65-.81,1.46-1.21,2.43-1.21h52.69c1.46,0,2.43.65,2.91,1.94l23.31,53.18c.49,1.29,1.54,1.94,3.16,1.94h17c1.62,0,2.67-.65,3.16-1.94l23.55-53.18c.49-1.3,1.46-1.94,2.91-1.94h52.93Z"></path><path class="cls-2" d="m63.08,128.29c-.98,0-1.71-.37-2.2-1.1-.49-.73-.55-1.53-.18-2.38,5.25-12.71,10.39-24.5,15.4-35.37,5.01-11,7.88-17.29,8.61-18.88l2.38-5.13c.24-.86.24-1.65,0-2.38-2.2-4.28-5.93-12.28-11.18-24.01-5.25-11.73-10.32-23.52-15.21-35.37-.12-.24-.18-.61-.18-1.1,0-.73.24-1.34.73-1.83.49-.49,1.1-.73,1.83-.73h39.4c.98,0,1.77.55,2.38,1.65l17.41,39.59c.37.98,1.22,1.47,2.57,1.47h12.83c1.22,0,2.02-.49,2.38-1.47,5.38-12.95,11.18-26.15,17.41-39.59.49-1.1,1.28-1.65,2.38-1.65h39.77c.86,0,1.53.43,2.02,1.28.49.73.61,1.53.37,2.38l-26.39,59.38c-.24.85-.24,1.59,0,2.2l26.39,59.38c.12.24.18.55.18.92,0,.73-.24,1.4-.73,2.02-.49.49-1.1.73-1.83.73h-39.77c-1.22,0-2.02-.49-2.38-1.47l-2.2-4.76c-5.86-13.07-10.93-24.62-15.21-34.64-.37-.98-1.16-1.47-2.38-1.47h-12.83c-1.34,0-2.2.49-2.57,1.47l-17.41,39.4c-.61.98-1.4,1.47-2.38,1.47h-39.4Z"></path><path class="cls-2" d="m215.79,128.29c-1.47,0-2.63-.55-3.48-1.65-.73-1.1-.98-2.38-.73-3.85L243.65,3.12c.24-.98.73-1.71,1.47-2.2.86-.61,1.77-.92,2.75-.92h70.01c.98,0,1.89.31,2.75.92.86.61,1.34,1.34,1.47,2.2l32.07,119.68c.37,1.47.12,2.75-.73,3.85-.85,1.1-2.02,1.65-3.48,1.65h-36.84c-.98,0-1.89-.24-2.75-.73-.73-.61-1.22-1.4-1.47-2.38l-2.57-9.9c-.12-.49-.43-.92-.92-1.28-.49-.37-1.04-.55-1.65-.55h-41.79c-.61,0-1.16.18-1.65.55-.49.37-.79.79-.92,1.28-.25,1.1-.49,2.02-.73,2.75-.24.73-.43,1.4-.55,2.02-.86,3.18-1.34,5.31-1.47,6.41-.37,1.22-1.22,1.83-2.57,1.83h-38.31Zm76.06-54.62c.86,0,1.53-.31,2.02-.92.49-.73.61-1.59.37-2.57l-7.88-29.14c-.12-.73-.61-1.1-1.47-1.1h-4.03c-.73,0-1.22.37-1.47,1.1l-7.88,29.14v.73c0,.73.18,1.4.55,2.02.49.49,1.1.73,1.83.73h17.96Z"></path><path class="cls-2" d="m518.68,128.29c-.98,0-1.71-.37-2.2-1.1-.49-.73-.55-1.53-.18-2.38,5.25-12.71,10.39-24.5,15.39-35.37,5.01-11,7.88-17.29,8.61-18.88l2.38-5.13c.24-.86.24-1.65,0-2.38-2.2-4.28-5.93-12.28-11.18-24.01-5.25-11.73-10.32-23.52-15.21-35.37-.12-.24-.18-.61-.18-1.1,0-.73.24-1.34.73-1.83C517.33.25,517.94,0,518.68,0h39.4c.98,0,1.77.55,2.38,1.65l17.41,39.59c.37.98,1.22,1.47,2.57,1.47h12.83c1.22,0,2.02-.49,2.38-1.47,5.38-12.95,11.18-26.15,17.41-39.59C613.55.55,614.35,0,615.45,0h39.77c.86,0,1.53.43,2.02,1.28.49.73.61,1.53.37,2.38l-26.39,59.38c-.24.85-.24,1.59,0,2.2l26.39,59.38c.12.24.18.55.18.92,0,.73-.25,1.4-.73,2.02-.49.49-1.1.73-1.83.73h-39.77c-1.22,0-2.02-.49-2.38-1.47l-2.2-4.76c-5.86-13.07-10.93-24.62-15.21-34.64-.37-.98-1.16-1.47-2.38-1.47h-12.83c-1.34,0-2.2.49-2.57,1.47l-17.41,39.4c-.61.98-1.4,1.47-2.38,1.47h-39.4Z"></path><path class="cls-2" d="m671.39,128.29c-1.47,0-2.63-.55-3.48-1.65-.73-1.1-.98-2.38-.73-3.85L699.25,3.12c.24-.98.73-1.71,1.47-2.2.85-.61,1.77-.92,2.75-.92h70.01c.98,0,1.89.31,2.75.92.85.61,1.34,1.34,1.47,2.2l32.07,119.68c.37,1.47.12,2.75-.73,3.85-.85,1.1-2.02,1.65-3.48,1.65h-36.84c-.98,0-1.89-.24-2.75-.73-.73-.61-1.22-1.4-1.47-2.38l-2.57-9.9c-.12-.49-.43-.92-.92-1.28-.49-.37-1.04-.55-1.65-.55h-41.79c-.61,0-1.16.18-1.65.55-.49.37-.79.79-.92,1.28-.24,1.1-.49,2.02-.73,2.75-.24.73-.43,1.4-.55,2.02-.86,3.18-1.34,5.31-1.47,6.41-.37,1.22-1.22,1.83-2.57,1.83h-38.3Zm76.06-54.62c.86,0,1.53-.31,2.02-.92.49-.73.61-1.59.37-2.57l-7.88-29.14c-.12-.73-.61-1.1-1.47-1.1h-4.03c-.73,0-1.22.37-1.47,1.1l-7.88,29.14v.73c0,.73.18,1.4.55,2.02.49.49,1.1.73,1.83.73h17.96Z"></path><path class="cls-2" d="m401.09,62.82c.78-1.48,2.32-2.41,3.99-2.41h77.38c1.81,0,3.45,1.09,4.16,2.76l6.51,15.46c1.25,2.97-.93,6.26-4.16,6.26h-92.03c-3.39,0-5.57-3.61-3.99-6.61l8.14-15.46Z"></path><path class="cls-2" d="m314.31,363.29c-7.28,0-14.01-2.12-20.19-6.36-6.18-4.4-11.12-10.21-14.83-17.44-3.57-7.39-5.36-15.4-5.36-24.04v-69.06c0-8.8,1.79-16.82,5.36-24.04,3.71-7.39,8.65-13.2,14.83-17.44,6.18-4.4,12.91-6.6,20.19-6.6h273.24c7.42,0,14.22,2.2,20.4,6.6,6.18,4.24,11.06,10.06,14.63,17.44,3.57,7.23,5.36,15.24,5.36,24.04v69.06c0,8.64-1.79,16.66-5.36,24.04-3.57,7.23-8.45,13.04-14.63,17.44-6.18,4.24-12.98,6.36-20.4,6.36h-273.24Zm257.99-55.39c1.92,0,3.57-.79,4.95-2.36,1.37-1.73,2.06-3.85,2.06-6.36v-37.48c0-2.51-.69-4.64-2.06-6.36-1.37-1.73-3.02-2.59-4.95-2.59h-242.33c-1.92,0-3.64.86-5.15,2.59-1.37,1.73-2.06,3.85-2.06,6.36v37.48c0,2.51.69,4.64,2.06,6.36,1.51,1.57,3.23,2.36,5.15,2.36h242.33Z"></path></g></g></svg>